{
.appVersion = "3151";
.formatVersion = 3;
DisplayStrings = (
A,
B,
C,
D,
E,
F,
G,
H,
I,
J,
K,
L,
M,
N,
O,
P,
Q,
R,
S,
T,
U,
V,
W,
X,
Y,
Z,
"0",
"1",
"2",
"3",
"4",
"5",
"6",
"7",
"8",
"9"
);
axes = (
{
name = BOLD;
tag = BOLD;
}
);
date = "2024-03-08 11:24:28 +0000";
familyName = "Last day of class Font";
fontMaster = (
{
axesValues = (
100
);
id = m01;
metricValues = (
{
over = 16;
pos = 800;
},
{
over = 16;
pos = 700;
},
{
over = 16;
pos = 500;
},
{
over = -16;
},
{
over = -16;
pos = -200;
},
{
over = -16;
}
);
name = Thickness;
},
{
axesValues = (
0
);
id = m002;
metricValues = (
{
over = 16;
pos = 800;
},
{
over = 16;
pos = 700;
},
{
over = 16;
pos = 500;
},
{
over = -16;
},
{
over = -16;
pos = -200;
},
{
over = -16;
}
);
name = Regular;
}
);
glyphs = (
{
glyphname = A;
lastChange = "2024-03-08 11:25:27 +0000";
layers = (
{
layerId = m01;
shapes = (
{
closed = 1;
nodes = (
(371,43,l),
(372,40,l),
(386,3,l),
(389,0,l),
(418,0,l),
(420,3,l),
(435,40,l),
(436,43,l),
(450,105,l),
(450,110,l),
(452,129,l),
(452,0,l),
(776,0,l),
(776,508,l),
(452,508,l),
(452,376,l),
(450,394,l),
(450,398,l),
(436,465,l),
(436,468,l),
(420,505,l),
(418,508,l),
(389,508,l),
(386,505,l),
(372,468,l),
(371,465,l),
(358,398,l),
(357,393,l),
(349,303,l),
(349,299,l),
(349,211,l),
(349,207,l),
(356,122,l),
(359,96,l)
);
},
{
closed = 1;
nodes = (
(356,211,l),
(356,299,l),
(363,384,l),
(376,450,l),
(389,485,l),
(417,485,l),
(431,449,l),
(444,385,l),
(452,298,l),
(452,211,l),
(444,119,l),
(432,59,l),
(417,24,l),
(389,24,l),
(376,59,l),
(364,117,l),
(361,146,l)
);
}
);
width = 600;
},
{
layerId = m002;
shapes = (
{
closed = 1;
nodes = (
(160,43,l),
(163,40,l),
(214,3,l),
(223,0,l),
(329,0,l),
(337,3,l),
(392,40,l),
(396,43,l),
(444,105,l),
(446,110,l),
(452,129,l),
(452,0,l),
(477,0,l),
(477,508,l),
(452,508,l),
(452,376,l),
(446,394,l),
(444,398,l),
(396,465,l),
(393,468,l),
(338,505,l),
(329,508,l),
(223,508,l),
(214,505,l),
(163,468,l),
(160,465,l),
(111,398,l),
(109,393,l),
(81,303,l),
(80,299,l),
(80,211,l),
(81,207,l),
(105,122,l),
(118,96,l)
);
},
{
closed = 1;
nodes = (
(105,211,l),
(105,299,l),
(131,384,l),
(179,450,l),
(226,485,l),
(326,485,l),
(376,449,l),
(423,385,l),
(452,298,l),
(452,211,l),
(424,119,l),
(378,59,l),
(327,24,l),
(226,24,l),
(178,59,l),
(133,117,l),
(123,146,l)
);
}
);
width = 600;
}
);
unicode = 65;
},
{
glyphname = B;
lastChange = "2024-03-08 11:26:39 +0000";
layers = (
{
layerId = m01;
shapes = (
{
closed = 1;
nodes = (
(149,21,l),
(139,54,l),
(129,118,l),
(121,210,l),
(121,300,l),
(129,388,l),
(139,448,l),
(149,482,l),
(170,482,l),
(180,448,l),
(191,386,l),
(197,300,l),
(197,210,l),
(191,119,l),
(180,53,l),
(170,21,l)
);
},
{
closed = 1;
nodes = (
(201,309,l),
(195,399,l),
(195,403,l),
(184,465,l),
(184,468,l),
(172,506,l),
(170,509,l),
(148,509,l),
(146,506,l),
(135,467,l),
(135,464,l),
(124,403,l),
(124,398,l),
(120,384,l),
(120,711,l),
(-242,711,l),
(-242,0,l),
(120,0,l),
(120,127,l),
(124,113,l),
(124,108,l),
(135,41,l),
(135,38,l),
(146,3,l),
(148,0,l),
(170,0,l),
(172,2,l),
(184,37,l),
(184,42,l),
(195,109,l),
(195,113,l),
(201,211,l),
(202,215,l),
(202,304,l)
);
}
);
width = 600;
},
{
layerId = m002;
shapes = (
{
closed = 1;
nodes = (
(242,21,l),
(195,54,l),
(147,118,l),
(121,210,l),
(121,300,l),
(147,387,l),
(196,447,l),
(243,481,l),
(341,481,l),
(391,447,l),
(440,385,l),
(468,299,l),
(468,209,l),
(440,119,l),
(392,53,l),
(341,21,l)
);
},
{
closed = 1;
nodes = (
(491,308,l),
(461,398,l),
(459,402,l),
(411,464,l),
(408,467,l),
(353,505,l),
(344,508,l),
(238,508,l),
(229,505,l),
(178,466,l),
(175,463,l),
(126,402,l),
(124,397,l),
(120,384,l),
(120,738,l),
(95,738,l),
(95,0,l),
(120,0,l),
(120,127,l),
(124,113,l),
(126,108,l),
(175,41,l),
(178,38,l),
(229,3,l),
(238,0,l),
(344,0,l),
(352,2,l),
(407,37,l),
(411,42,l),
(459,109,l),
(461,113,l),
(491,210,l),
(492,214,l),
(492,303,l)
);
}
);
width = 600;
}
);
unicode = 66;
},
{
glyphname = C;
lastChange = "2024-03-08 11:29:10 +0000";
layers = (
{
layerId = m01;
shapes = (
{
closed = 1;
nodes = (
(169,24,l),
(149,24,l),
(140,56,l),
(130,123,l),
(125,208,l),
(125,297,l),
(130,383,l),
(140,449,l),
(140,450,l),
(149,484,l),
(169,484,l),
(179,452,l),
(179,451,l),
(189,381,l),
(193,395,l),
(183,465,l),
(182,468,l),
(171,505,l),
(170,508,l),
(148,508,l),
(147,505,l),
(136,468,l),
(136,465,l),
(126,398,l),
(125,393,l),
(114,300,l),
(114,210,l),
(-85,432,l),
(-183,230,l),
(36,-4,l),
(122,171,l),
(126,116,l),
(126,111,l),
(136,40,l),
(137,37,l),
(147,3,l),
(148,0,l),
(170,0,l),
(171,3,l),
(182,40,l),
(183,43,l),
(193,115,l),
(189,129,l),
(179,58,l),
(179,57,l)
);
}
);
width = 600;
},
{
layerId = m002;
shapes = (
{
closed = 1;
nodes = (
(356,24,l),
(257,24,l),
(212,56,l),
(164,123,l),
(138,208,l),
(138,297,l),
(164,383,l),
(210,449,l),
(211,450,l),
(258,484,l),
(356,484,l),
(406,452,l),
(406,451,l),
(457,381,l),
(477,395,l),
(427,465,l),
(423,468,l),
(367,505,l),
(359,508,l),
(254,508,l),
(245,505,l),
(194,468,l),
(191,465,l),
(141,398,l),
(139,393,l),
(114,300,l),
(113,296,l),
(113,208,l),
(15,6,l),
(36,-4,l),
(122,171,l),
(141,116,l),
(143,111,l),
(193,40,l),
(196,37,l),
(245,3,l),
(254,0,l),
(360,0,l),
(368,3,l),
(423,40,l),
(427,43,l),
(477,115,l),
(457,129,l),
(408,58,l),
(407,57,l)
);
}
);
width = 600;
}
);
unicode = 67;
},
{
glyphname = D;
lastChange = "2024-03-08 11:34:11 +0000";
layers = (
{
layerId = m01;
shapes = (
{
closed = 1;
nodes = (
(330,193,l),
(326,205,l),
(318,137,l),
(313,213,l),
(313,303,l),
(319,389,l),
(330,452,l),
(340,483,l),
(361,483,l),
(371,448,l),
(382,388,l),
(387,304,l),
(387,213,l),
(381,122,l),
(371,57,l),
(361,23,l),
(340,23,l),
(329,57,l),
(329,59,l),
(321,110,l)
);
},
{
closed = 1;
nodes = (
(387,738,l),
(387,386,l),
(386,399,l),
(386,404,l),
(375,466,l),
(364,502,l),
(362,506,l),
(339,506,l),
(337,502,l),
(326,466,l),
(325,463,l),
(315,404,l),
(314,400,l),
(308,302,l),
(308,215,l),
(308,211,l),
(314,113,l),
(315,108,l),
(305,9,l),
(309,-1,l),
(318,85,l),
(325,43,l),
(326,39,l),
(338,3,l),
(339,0,l),
(362,0,l),
(364,3,l),
(375,42,l),
(386,109,l),
(386,114,l),
(387,128,l),
(387,0,l),
(823,0,l),
(823,738,l)
);
}
);
width = 600;
},
{
layerId = m002;
shapes = (
{
closed = 1;
nodes = (
(120,194,l),
(99,206,l),
(64,137,l),
(40,214,l),
(40,304,l),
(68,390,l),
(117,453,l),
(166,485,l),
(266,485,l),
(314,449,l),
(362,389,l),
(387,305,l),
(387,214,l),
(361,122,l),
(312,57,l),
(265,23,l),
(168,23,l),
(116,57,l),
(114,59,l),
(78,110,l)
);
},
{
closed = 1;
nodes = (
(387,738,l),
(387,387,l),
(383,400,l),
(381,405,l),
(329,468,l),
(278,504,l),
(269,508,l),
(163,508,l),
(154,504,l),
(99,468,l),
(96,465,l),
(48,405,l),
(46,401,l),
(15,303,l),
(15,216,l),
(16,212,l),
(46,113,l),
(50,108,l),
(0,9,l),
(22,-1,l),
(65,85,l),
(96,43,l),
(100,39,l),
(155,3,l),
(163,0,l),
(269,0,l),
(278,3,l),
(332,42,l),
(381,109,l),
(383,114,l),
(387,128,l),
(387,0,l),
(412,0,l),
(412,738,l)
);
}
);
width = 600;
}
);
unicode = 68;
},
{
glyphname = E;
lastChange = "2024-03-08 11:35:11 +0000";
layers = (
{
layerId = m01;
shapes = (
{
closed = 1;
nodes = (
(432,484,l),
(445,450,l),
(457,385,l),
(462,306,l),
(374,306,l),
(380,383,l),
(393,448,l),
(405,484,l)
);
},
{
closed = 1;
nodes = (
(432,24,l),
(405,24,l),
(393,59,l),
(380,127,l),
(373,215,l),
(373,282,l),
(856,282,l),
(856,306,l),
(834,391,l),
(831,397,l),
(783,464,l),
(725,505,l),
(716,508,l),
(404,508,l),
(402,505,l),
(389,467,l),
(375,397,l),
(367,302,l),
(367,298,l),
(367,215,l),
(374,117,l),
(375,112,l),
(388,43,l),
(402,3,l),
(404,0,l),
(715,0,l),
(723,2,l),
(779,37,l),
(784,42,l),
(831,113,l),
(458,126,l),
(445,59,l)
);
}
);
width = 600;
},
{
layerId = m002;
shapes = (
{
closed = 1;
nodes = (
(347,484,l),
(396,450,l),
(443,385,l),
(462,306,l),
(128,306,l),
(152,383,l),
(199,448,l),
(247,484,l)
);
},
{
closed = 1;
nodes = (
(348,24,l),
(247,24,l),
(199,59,l),
(152,127,l),
(126,215,l),
(126,282,l),
(490,282,l),
(490,306,l),
(468,391,l),
(465,397,l),
(417,464,l),
(359,505,l),
(350,508,l),
(244,508,l),
(235,505,l),
(184,467,l),
(132,397,l),
(102,302,l),
(101,298,l),
(101,215,l),
(130,117,l),
(132,112,l),
(181,43,l),
(235,3,l),
(244,0,l),
(350,0,l),
(358,2,l),
(414,37,l),
(419,42,l),
(466,113,l),
(445,126,l),
(399,59,l)
);
}
);
width = 600;
}
);
unicode = 69;
},
{
glyphname = F;
lastChange = "2024-03-08 11:36:31 +0000";
layers = (
{
layerId = m01;
shapes = (
{
closed = 1;
nodes = (
(214,510,l),
(214,655,l),
(221,716,l),
(240,716,l),
(249,692,l),
(254,661,l),
(254,619,l),
(259,619,l),
(259,662,l),
(254,705,l),
(253,709,l),
(243,739,l),
(241,741,l),
(219,741,l),
(217,737,l),
(214,688,l),
(214,741,l),
(-137,744,l),
(-137,668,l),
(-137,668,l),
(-137,629,l),
(-137,636,l),
(-137,516,l),
(-137,516,l),
(-137,492,l),
(-137,492,l),
(-137,6,l),
(215,0,l),
(214,486,l),
(250,486,l),
(250,510,l)
);
}
);
width = 600;
},
{
layerId = m002;
shapes = (
{
closed = 1;
nodes = (
(179,510,l),
(179,653,l),
(241,714,l),
(316,714,l),
(349,690,l),
(368,659,l),
(368,618,l),
(391,618,l),
(391,660,l),
(368,703,l),
(365,707,l),
(327,736,l),
(318,738,l),
(234,738,l),
(227,734,l),
(179,686,l),
(179,738,l),
(155,738,l),
(155,662,l),
(81,588,l),
(97,573,l),
(155,630,l),
(155,510,l),
(58,510,l),
(58,486,l),
(155,486,l),
(155,0,l),
(180,0,l),
(180,486,l),
(353,486,l),
(353,510,l)
);
}
);
width = 600;
}
);
unicode = 70;
},
{
glyphname = G;
lastChange = "2024-03-08 11:37:55 +0000";
layers = (
{
layerId = m01;
shapes = (
{
closed = 1;
nodes = (
(370,475,l),
(359,418,l),
(352,350,l),
(352,346,l),
(352,278,l),
(358,209,l),
(361,190,l),
(356,177,l),
(353,143,l),
(353,102,l),
(359,64,l),
(370,37,l),
(381,37,l),
(376,27,l),
(370,14,l),
(356,-33,l),
(356,-38,l),
(356,-99,l),
(356,-104,l),
(366,-159,l),
(394,-200,l),
(448,-200,l),
(737,-158,l),
(825,-107,l),
(827,-101,l),
(827,-37,l),
(823,-31,l),
(694,22,l),
(473,55,l),
(449,57,l),
(394,57,l),
(392,57,l),
(371,57,l),
(363,77,l),
(359,105,l),
(359,140,l),
(361,165,l),
(364,173,l),
(370,141,l),
(371,138,l),
(383,110,l),
(385,108,l),
(409,108,l),
(414,110,l),
(444,138,l),
(551,195,l),
(619,273,l),
(622,278,l),
(622,347,l),
(561,413,l),
(529,433,l),
(529,433,l),
(489,452,l),
(489,452,l),
(446,474,l),
(414,505,l),
(409,508,l),
(385,508,l),
(383,506,l)
);
},
{
closed = 1;
nodes = (
(417,460,l),
(429,408,l),
(434,346,l),
(434,280,l),
(428,208,l),
(418,156,l),
(408,131,l),
(386,131,l),
(375,157,l),
(369,185,l),
(373,190,l),
(386,190,l),
(386,212,l),
(371,212,l),
(366,203,l),
(364,222,l),
(358,280,l),
(358,346,l),
(365,407,l),
(375,459,l),
(386,485,l),
(408,485,l)
);
},
{
closed = 1;
nodes = (
(444,0,l),
(469,-42,l),
(469,-99,l),
(446,-143,l),
(423,-177,l),
(394,-177,l),
(370,-140,l),
(363,-98,l),
(363,-43,l),
(375,-1,l),
(393,35,l),
(423,35,l)
);
}
);
width = 600;
},
{
layerId = m002;
shapes = (
{
closed = 1;
nodes = (
(145,475,l),
(103,418,l),
(75,350,l),
(74,346,l),
(74,278,l),
(98,209,l),
(108,190,l),
(90,177,l),
(77,143,l),
(77,102,l),
(100,64,l),
(144,37,l),
(188,37,l),
(167,27,l),
(144,14,l),
(91,-33,l),
(90,-38,l),
(90,-99,l),
(91,-104,l),
(127,-159,l),
(235,-200,l),
(351,-200,l),
(460,-158,l),
(493,-107,l),
(494,-101,l),
(494,-37,l),
(492,-31,l),
(444,22,l),
(361,55,l),
(352,57,l),
(237,57,l),
(230,57,l),
(149,57,l),
(118,77,l),
(100,105,l),
(100,140,l),
(109,165,l),
(120,173,l),
(145,141,l),
(148,138,l),
(195,110,l),
(202,108,l),
(294,108,l),
(301,110,l),
(344,138,l),
(390,195,l),
(416,273,l),
(417,278,l),
(417,347,l),
(394,413,l),
(382,433,l),
(449,500,l),
(432,518,l),
(367,452,l),
(348,474,l),
(301,505,l),
(294,508,l),
(202,508,l),
(195,506,l)
);
},
{
closed = 1;
nodes = (
(327,460,l),
(370,408,l),
(392,346,l),
(392,280,l),
(369,208,l),
(329,156,l),
(291,131,l),
(206,131,l),
(162,157,l),
(141,185,l),
(154,190,l),
(204,190,l),
(204,212,l),
(149,212,l),
(127,203,l),
(119,222,l),
(99,280,l),
(99,346,l),
(124,407,l),
(164,459,l),
(206,485,l),
(290,485,l)
);
},
{
closed = 1;
nodes = (
(431,0,l),
(469,-42,l),
(469,-99,l),
(438,-143,l),
(348,-177,l),
(238,-177,l),
(144,-140,l),
(117,-98,l),
(117,-43,l),
(162,-1,l),
(234,35,l),
(348,35,l)
);
}
);
width = 600;
}
);
unicode = 71;
},
{
glyphname = H;
lastChange = "2024-03-08 11:39:44 +0000";
layers = (
{
layerId = m01;
shapes = (
{
closed = 1;
nodes = (
(182,484,l),
(196,484,l),
(203,449,l),
(210,387,l),
(210,0,l),
(214,0,l),
(214,391,l),
(213,400,l),
(206,465,l),
(198,505,l),
(197,508,l),
(182,508,l),
(180,505,l),
(172,465,l),
(156,423,l),
(156,738,l),
(-210,738,l),
(-210,386,l),
(-210,386,l),
(-210,374,l),
(-210,357,l),
(-216,0,l),
(157,0,l),
(157,382,l),
(175,450,l)
);
}
);
width = 600;
},
{
layerId = m002;
shapes = (
{
closed = 1;
nodes = (
(241,484,l),
(340,484,l),
(387,449,l),
(432,387,l),
(432,0,l),
(457,0,l),
(457,391,l),
(454,400,l),
(405,465,l),
(352,505,l),
(343,508,l),
(238,508,l),
(229,505,l),
(172,465,l),
(142,423,l),
(142,738,l),
(116,738,l),
(116,386,l),
(40,270,l),
(61,255,l),
(117,343,l),
(117,0,l),
(143,0,l),
(143,382,l),
(191,450,l)
);
}
);
width = 600;
}
);
unicode = 72;
},
{
glyphname = I;
lastChange = "2024-03-08 11:40:23 +0000";
layers = (
{
layerId = m01;
shapes = (
{
closed = 1;
nodes = (
(142,482,l),
(155,482,l),
(155,270,l),
(155,0,l),
(598,0,l),
(598,269,l),
(598,494,l),
(598,508,l),
(142,508,l)
);
},
{
closed = 1;
nodes = (
(154,698,l),
(154,602,l),
(598,602,l),
(598,698,l)
);
}
);
width = 600;
},
{
layerId = m002;
shapes = (
{
closed = 1;
nodes = (
(58,482,l),
(155,482,l),
(155,270,l),
(155,0,l),
(179,0,l),
(179,269,l),
(179,494,l),
(179,508,l),
(58,508,l)
);
},
{
closed = 1;
nodes = (
(154,698,l),
(154,602,l),
(179,602,l),
(179,698,l)
);
}
);
width = 600;
}
);
unicode = 73;
},
{
glyphname = J;
lastChange = "2024-03-08 11:41:04 +0000";
layers = (
{
layerId = m01;
shapes = (
{
closed = 1;
nodes = (
(157,698,l),
(157,602,l),
(641,602,l),
(641,698,l)
);
},
{
closed = 1;
nodes = (
(130,500,l),
(130,482,l),
(158,482,l),
(155,-68,l),
(145,-111,l),
(127,-148,l),
(90,-148,l),
(90,-175,l),
(129,-175,l),
(552,-173,l),
(606,-133,l),
(641,-79,l),
(641,-54,l),
(641,508,l)
);
}
);
width = 600;
},
{
layerId = m002;
shapes = (
{
closed = 1;
nodes = (
(157,698,l),
(157,602,l),
(182,602,l),
(182,698,l)
);
},
{
closed = 1;
nodes = (
(57,508,l),
(57,482,l),
(158,482,l),
(155,-68,l),
(130,-111,l),
(81,-148,l),
(-15,-148,l),
(-15,-175,l),
(86,-175,l),
(93,-173,l),
(147,-133,l),
(182,-79,l),
(182,-54,l),
(182,508,l)
);
}
);
width = 600;
}
);
unicode = 74;
},
{
glyphname = K;
lastChange = "2024-03-08 11:43:20 +0000";
layers = (
{
layerId = m01;
shapes = (
{
closed = 1;
nodes = (
(114,738,l),
(-347,738,l),
(-347,311,l),
(-347,295,l),
(-347,295,l),
(-347,280,l),
(-347,0,l),
(115,0,l),
(114,302,l),
(125,346,l),
(180,-1,l),
(184,14,l),
(129,362,l),
(153,466,l),
(174,558,l),
(171,578,l),
(114,333,l)
);
}
);
width = 600;
},
{
layerId = m002;
shapes = (
{
closed = 1;
nodes = (
(114,738,l),
(89,738,l),
(89,311,l),
(30,259,l),
(45,240,l),
(89,280,l),
(92,0,l),
(117,0,l),
(114,302,l),
(170,346,l),
(438,-1,l),
(458,14,l),
(190,362,l),
(304,466,l),
(412,558,l),
(396,578,l),
(114,333,l)
);
}
);
width = 600;
}
);
unicode = 75;
},
{
glyphname = L;
lastChange = "2024-03-08 11:43:41 +0000";
layers = (
{
layerId = m01;
shapes = (
{
closed = 1;
nodes = (
(80,0,l),
(612,0,l),
(612,738,l),
(80,738,l)
);
}
);
width = 600;
},
{
layerId = m002;
shapes = (
{
closed = 1;
nodes = (
(80,0,l),
(106,0,l),
(106,738,l),
(80,738,l)
);
}
);
width = 600;
}
);
unicode = 76;
},
{
glyphname = M;
lastChange = "2024-03-08 11:44:22 +0000";
layers = (
{
layerId = m01;
shapes = (
{
closed = 1;
nodes = (
(175,481,l),
(179,460,l),
(185,414,l),
(171,265,l),
(175,252,l),
(185,368,l),
(185,0,l),
(189,0,l),
(189,411,l),
(193,457,l),
(199,481,l),
(211,481,l),
(216,458,l),
(221,411,l),
(224,353,l),
(224,0,l),
(228,0,l),
(228,351,l),
(225,420,l),
(224,425,l),
(219,472,l),
(213,502,l),
(212,505,l),
(198,505,l),
(197,502,l),
(191,475,l),
(187,435,l),
(182,473,l),
(182,476,l),
(176,502,l),
(175,505,l),
(159,505,l),
(158,502,l),
(152,476,l),
(152,473,l),
(150,454,l),
(150,505,l),
(-272,508,l),
(-272,421,l),
(-272,409,l),
(-272,397,l),
(-272,372,l),
(-272,0,l),
(150,0,l),
(150,412,l),
(154,452,l),
(154,455,l),
(160,481,l)
);
}
);
width = 600;
},
{
layerId = m002;
shapes = (
{
closed = 1;
nodes = (
(320,484,l),
(354,462,l),
(390,416,l),
(299,266,l),
(320,253,l),
(392,370,l),
(392,0,l),
(417,0,l),
(417,413,l),
(450,459,l),
(487,484,l),
(574,484,l),
(609,460,l),
(645,413,l),
(663,355,l),
(663,0,l),
(688,0,l),
(688,353,l),
(667,422,l),
(665,427,l),
(629,475,l),
(587,505,l),
(578,508,l),
(483,508,l),
(474,505,l),
(435,478,l),
(405,437,l),
(375,476,l),
(372,479,l),
(332,505,l),
(323,508,l),
(215,508,l),
(206,505,l),
(167,479,l),
(164,476,l),
(150,456,l),
(150,508,l),
(125,508,l),
(125,421,l),
(30,266,l),
(52,253,l),
(125,372,l),
(125,0,l),
(150,0,l),
(150,414,l),
(179,454,l),
(181,457,l),
(218,484,l)
);
}
);
width = 600;
}
);
unicode = 77;
},
{
glyphname = N;
lastChange = "2024-03-08 11:45:01 +0000";
layers = (
{
layerId = m01;
shapes = (
{
closed = 1;
nodes = (
(169,473,l),
(161,502,l),
(160,504,l),
(147,504,l),
(146,502,l),
(136,473,l),
(136,470,l),
(129,424,l),
(129,504,l),
(-334,508,l),
(-334,392,l),
(-334,326,l),
(-334,377,l),
(-334,346,l),
(-334,333,l),
(-334,321,l),
(-334,0,l),
(129,0,l),
(129,379,l),
(132,406,l),
(139,453,l),
(147,480,l),
(159,480,l),
(167,453,l),
(173,409,l),
(177,357,l),
(177,0,l),
(181,0,l),
(181,358,l),
(181,364,l),
(177,418,l),
(177,422,l),
(170,470,l)
);
}
);
width = 600;
},
{
layerId = m002;
shapes = (
{
closed = 1;
nodes = (
(385,477,l),
(331,506,l),
(324,508,l),
(241,508,l),
(234,506,l),
(176,477,l),
(172,474,l),
(129,428,l),
(129,508,l),
(104,508,l),
(104,392,l),
(18,268,l),
(41,255,l),
(104,346,l),
(104,326,l),
(104,321,l),
(104,0,l),
(129,0,l),
(129,382,l),
(148,409,l),
(190,457,l),
(243,484,l),
(322,484,l),
(371,457,l),
(410,413,l),
(433,360,l),
(433,0,l),
(458,0,l),
(458,361,l),
(457,367,l),
(434,422,l),
(431,426,l),
(389,474,l)
);
}
);
width = 600;
}
);
unicode = 78;
},
{
glyphname = O;
lastChange = "2024-03-08 11:46:22 +0000";
layers = (
{
layerId = m01;
shapes = (
{
closed = 1;
nodes = (
(273,24,l),
(247,59,l),
(225,123,l),
(210,215,l),
(210,296,l),
(225,387,l),
(248,449,l),
(273,484,l),
(323,484,l),
(346,448,l),
(393,384,l),
(394,383,l),
(419,300,l),
(419,212,l),
(393,128,l),
(393,127,l),
(346,59,l),
(322,24,l)
);
},
{
closed = 1;
nodes = (
(240,40,l),
(268,3,l),
(272,0,l),
(412,0,l),
(430,3,l),
(534,40,l),
(541,44,l),
(639,114,l),
(643,118,l),
(700,208,l),
(702,212,l),
(702,299,l),
(700,303,l),
(643,393,l),
(639,398,l),
(541,464,l),
(534,467,l),
(430,505,l),
(412,508,l),
(272,508,l),
(267,505,l),
(240,467,l),
(238,464,l),
(214,398,l),
(213,394,l),
(197,297,l),
(197,213,l),
(213,117,l),
(214,114,l),
(238,44,l)
);
}
);
width = 600;
},
{
layerId = m002;
shapes = (
{
closed = 1;
nodes = (
(199,24,l),
(148,59,l),
(104,123,l),
(74,215,l),
(74,296,l),
(104,387,l),
(150,449,l),
(200,484,l),
(299,484,l),
(346,448,l),
(393,384,l),
(394,383,l),
(419,300,l),
(419,212,l),
(393,128,l),
(393,127,l),
(346,59,l),
(298,24,l)
);
},
{
closed = 1;
nodes = (
(134,40,l),
(189,3,l),
(197,0,l),
(302,0,l),
(311,3,l),
(362,40,l),
(365,44,l),
(413,114,l),
(415,118,l),
(443,208,l),
(444,212,l),
(444,299,l),
(443,303,l),
(415,393,l),
(413,398,l),
(365,464,l),
(362,467,l),
(311,505,l),
(302,508,l),
(197,508,l),
(188,505,l),
(133,467,l),
(130,464,l),
(82,398,l),
(80,394,l),
(48,297,l),
(48,213,l),
(80,117,l),
(82,114,l),
(130,44,l)
);
}
);
width = 600;
}
);
unicode = 79;
},
{
glyphname = P;
lastChange = "2024-03-08 11:47:49 +0000";
layers = (
{
layerId = m01;
shapes = (
{
closed = 1;
nodes = (
(207,214,l),
(201,126,l),
(201,125,l),
(190,58,l),
(179,24,l),
(156,24,l),
(144,58,l),
(134,121,l),
(120,226,l),
(120,296,l),
(134,382,l),
(144,442,l),
(156,477,l),
(179,477,l),
(190,441,l),
(201,379,l),
(201,378,l),
(207,300,l)
);
},
{
closed = 1;
nodes = (
(212,303,l),
(206,388,l),
(205,393,l),
(194,457,l),
(194,460,l),
(182,498,l),
(180,500,l),
(155,500,l),
(153,498,l),
(140,460,l),
(140,457,l),
(128,393,l),
(128,389,l),
(120,375,l),
(120,508,l),
(-392,509,l),
(-392,-199,l),
(120,-200,l),
(120,141,l),
(128,115,l),
(128,112,l),
(140,43,l),
(141,39,l),
(153,3,l),
(155,0,l),
(180,0,l),
(182,3,l),
(194,39,l),
(194,43,l),
(205,112,l),
(206,116,l),
(212,210,l),
(213,214,l),
(213,300,l)
);
}
);
width = 600;
},
{
layerId = m002;
shapes = (
{
closed = 1;
nodes = (
(467,217,l),
(441,128,l),
(441,127,l),
(394,59,l),
(346,24,l),
(247,24,l),
(196,59,l),
(152,123,l),
(120,226,l),
(120,296,l),
(152,388,l),
(198,449,l),
(248,484,l),
(347,484,l),
(394,448,l),
(441,385,l),
(442,384,l),
(467,305,l)
);
},
{
closed = 1;
nodes = (
(491,308,l),
(463,394,l),
(461,399,l),
(413,464,l),
(410,467,l),
(359,505,l),
(350,508,l),
(245,508,l),
(236,505,l),
(181,467,l),
(178,464,l),
(130,399,l),
(128,395,l),
(120,375,l),
(120,508,l),
(95,508,l),
(95,-200,l),
(120,-200,l),
(120,141,l),
(128,117,l),
(130,114,l),
(178,44,l),
(182,40,l),
(237,3,l),
(245,0,l),
(350,0,l),
(359,3,l),
(410,40,l),
(413,44,l),
(461,114,l),
(463,118,l),
(491,213,l),
(492,217,l),
(492,304,l)
);
}
);
width = 600;
}
);
unicode = 80;
},
{
glyphname = Q;
lastChange = "2024-03-08 11:47:57 +0000";
layers = (
{
layerId = m01;
shapes = (
{
closed = 1;
nodes = (
(399,298,l),
(399,211,l),
(388,122,l),
(380,57,l),
(372,24,l),
(356,24,l),
(348,56,l),
(340,122,l),
(336,211,l),
(336,299,l),
(340,384,l),
(348,450,l),
(356,484,l),
(372,484,l),
(380,449,l),
(388,383,l)
);
},
{
closed = 1;
nodes = (
(383,464,l),
(383,467,l),
(374,505,l),
(372,508,l),
(355,508,l),
(354,505,l),
(345,467,l),
(345,464,l),
(337,398,l),
(336,393,l),
(332,303,l),
(332,299,l),
(332,212,l),
(332,208,l),
(336,112,l),
(337,107,l),
(345,43,l),
(345,40,l),
(354,3,l),
(355,0,l),
(372,0,l),
(374,3,l),
(383,40,l),
(383,44,l),
(391,109,l),
(394,115,l),
(402,141,l),
(402,-200,l),
(897,-200,l),
(897,508,l),
(402,508,l),
(402,366,l),
(393,393,l),
(391,397,l)
);
}
);
width = 600;
},
{
layerId = m002;
shapes = (
{
closed = 1;
nodes = (
(399,298,l),
(399,211,l),
(371,122,l),
(325,57,l),
(274,24,l),
(175,24,l),
(130,56,l),
(81,122,l),
(55,211,l),
(55,299,l),
(81,384,l),
(130,450,l),
(176,484,l),
(273,484,l),
(323,449,l),
(371,383,l)
);
},
{
closed = 1;
nodes = (
(344,464,l),
(341,467,l),
(286,505,l),
(277,508,l),
(172,508,l),
(163,505,l),
(112,467,l),
(109,464,l),
(60,398,l),
(58,393,l),
(31,303,l),
(30,299,l),
(30,212,l),
(31,208,l),
(58,112,l),
(60,107,l),
(109,43,l),
(112,40,l),
(163,3,l),
(172,0,l),
(277,0,l),
(285,3,l),
(340,40,l),
(344,44,l),
(391,109,l),
(394,115,l),
(402,141,l),
(402,-200,l),
(427,-200,l),
(427,508,l),
(402,508,l),
(402,366,l),
(393,393,l),
(391,397,l)
);
}
);
width = 600;
}
);
unicode = 81;
},
{
glyphname = R;
lastChange = "2024-03-08 11:48:39 +0000";
layers = (
{
layerId = m01;
shapes = (
{
closed = 1;
nodes = (
(-213,0,l),
(164,0,l),
(164,384,l),
(172,449,l),
(175,462,l),
(181,478,l),
(192,478,l),
(198,461,l),
(203,432,l),
(206,385,l),
(210,394,l),
(207,440,l),
(207,445,l),
(201,476,l),
(200,479,l),
(194,498,l),
(193,500,l),
(181,500,l),
(179,498,l),
(173,479,l),
(172,476,l),
(169,461,l),
(168,458,l),
(164,423,l),
(164,500,l),
(-213,508,l),
(-213,390,l),
(-213,371,l),
(-213,371,l),
(-213,349,l)
);
}
);
width = 600;
},
{
layerId = m002;
shapes = (
{
closed = 1;
nodes = (
(139,0,l),
(164,0,l),
(164,384,l),
(214,454,l),
(233,468,l),
(270,485,l),
(338,485,l),
(370,467,l),
(403,436,l),
(425,385,l),
(449,395,l),
(429,444,l),
(426,449,l),
(391,483,l),
(386,486,l),
(350,506,l),
(341,508,l),
(266,508,l),
(259,506,l),
(220,486,l),
(215,483,l),
(193,467,l),
(190,463,l),
(164,426,l),
(164,508,l),
(139,508,l),
(139,390,l),
(62,281,l),
(80,266,l),
(139,349,l)
);
}
);
width = 600;
}
);
unicode = 82;
},
{
glyphname = S;
lastChange = "2024-03-08 11:50:10 +0000";
layers = (
{
layerId = m01;
shapes = (
{
closed = 1;
nodes = (
(647,189,l),
(625,241,l),
(622,246,l),
(581,285,l),
(578,288,l),
(534,303,l),
(525,305,l),
(303,305,l),
(294,321,l),
(289,354,l),
(289,389,l),
(293,436,l),
(301,468,l),
(310,485,l),
(326,485,l),
(334,467,l),
(342,436,l),
(349,378,l),
(597,378,l),
(572,444,l),
(559,451,l),
(415,498,l),
(393,503,l),
(334,506,l),
(327,508,l),
(309,508,l),
(307,506,l),
(297,486,l),
(296,483,l),
(288,449,l),
(287,445,l),
(283,397,l),
(283,391,l),
(283,347,l),
(283,342,l),
(290,303,l),
(291,299,l),
(299,285,l),
(301,282,l),
(325,282,l),
(336,268,l),
(336,268,l),
(345,231,l),
(350,184,l),
(350,132,l),
(345,85,l),
(340,65,l),
(335,43,l),
(326,23,l),
(306,23,l),
(297,42,l),
(287,84,l),
(282,135,l),
(276,127,l),
(282,73,l),
(283,68,l),
(292,27,l),
(293,24,l),
(304,2,l),
(306,0,l),
(529,0,l),
(538,2,l),
(578,24,l),
(622,68,l),
(625,73,l),
(647,127,l)
);
}
);
width = 600;
},
{
layerId = m002;
shapes = (
{
closed = 1;
nodes = (
(374,189,l),
(352,241,l),
(349,246,l),
(308,285,l),
(305,288,l),
(261,303,l),
(252,305,l),
(159,305,l),
(121,321,l),
(102,354,l),
(102,389,l),
(117,436,l),
(149,468,l),
(186,485,l),
(254,485,l),
(286,467,l),
(319,436,l),
(345,378,l),
(369,388,l),
(345,444,l),
(342,449,l),
(307,483,l),
(302,486,l),
(266,506,l),
(257,508,l),
(182,508,l),
(175,506,l),
(136,486,l),
(131,483,l),
(96,449,l),
(93,445,l),
(77,397,l),
(76,391,l),
(76,347,l),
(79,342,l),
(104,303,l),
(110,299,l),
(142,285,l),
(151,282,l),
(249,282,l),
(292,268,l),
(293,268,l),
(328,231,l),
(350,184,l),
(350,132,l),
(329,85,l),
(311,65,l),
(291,43,l),
(254,23,l),
(171,23,l),
(135,42,l),
(94,84,l),
(75,135,l),
(50,127,l),
(72,73,l),
(76,68,l),
(115,27,l),
(119,24,l),
(163,2,l),
(170,0,l),
(256,0,l),
(265,2,l),
(305,24,l),
(349,68,l),
(352,73,l),
(374,127,l)
);
}
);
width = 600;
}
);
unicode = 83;
},
{
glyphname = T;
lastChange = "2024-03-08 11:50:46 +0000";
layers = (
{
layerId = m01;
shapes = (
{
closed = 1;
nodes = (
(337,508,l),
(548,508,l),
(548,738,l),
(139,738,l),
(139,508,l),
(55,508,l),
(55,483,l),
(140,483,l),
(140,0,l),
(549,0,l),
(549,483,l),
(337,483,l)
);
}
);
width = 600;
},
{
layerId = m002;
shapes = (
{
closed = 1;
nodes = (
(337,508,l),
(164,508,l),
(164,738,l),
(139,738,l),
(139,508,l),
(55,508,l),
(55,483,l),
(140,483,l),
(140,0,l),
(165,0,l),
(165,483,l),
(337,483,l)
);
}
);
width = 600;
}
);
unicode = 84;
},
{
glyphname = U;
lastChange = "2024-03-08 11:51:25 +0000";
layers = (
{
layerId = m01;
shapes = (
{
closed = 1;
nodes = (
(440,24,l),
(426,24,l),
(419,59,l),
(411,125,l),
(407,217,l),
(407,508,l),
(403,508,l),
(403,221,l),
(386,7,l),
(389,-3,l),
(405,185,l),
(408,118,l),
(408,113,l),
(416,43,l),
(416,40,l),
(424,3,l),
(426,0,l),
(440,0,l),
(441,3,l),
(450,40,l),
(451,44,l),
(459,114,l),
(460,136,l),
(460,0,l),
(840,0,l),
(840,508,l),
(460,508,l),
(460,218,l),
(455,123,l),
(448,60,l)
);
}
);
width = 600;
},
{
layerId = m002;
shapes = (
{
closed = 1;
nodes = (
(333,24,l),
(252,24,l),
(204,59,l),
(158,125,l),
(132,217,l),
(132,508,l),
(107,508,l),
(107,221,l),
(0,7,l),
(21,-3,l),
(116,185,l),
(135,118,l),
(137,113,l),
(186,43,l),
(189,40,l),
(239,3,l),
(248,0,l),
(337,0,l),
(345,3,l),
(400,40,l),
(404,44,l),
(452,114,l),
(460,136,l),
(460,0,l),
(485,0,l),
(485,508,l),
(460,508,l),
(460,218,l),
(430,123,l),
(387,60,l)
);
}
);
width = 600;
}
);
unicode = 85;
},
{
glyphname = V;
lastChange = "2024-03-08 11:51:51 +0000";
layers = (
{
layerId = m01;
shapes = (
{
closed = 1;
nodes = (
(360,0,l),
(662,0,l),
(835,500,l),
(391,508,l),
(362,33,l),
(334,508,l),
(330,501,l)
);
}
);
width = 600;
},
{
layerId = m002;
shapes = (
{
closed = 1;
nodes = (
(214,0,l),
(242,0,l),
(415,500,l),
(391,508,l),
(228,33,l),
(64,508,l),
(40,501,l)
);
}
);
width = 600;
}
);
unicode = 86;
},
{
glyphname = W;
lastChange = "2024-03-08 11:52:24 +0000";
layers = (
{
layerId = m01;
shapes = (
{
closed = 1;
nodes = (
(453,498,l),
(449,509,l),
(428,292,l),
(408,509,l),
(404,497,l),
(426,265,l),
(404,28,l),
(359,508,l),
(355,498,l),
(402,0,l),
(407,0,l),
(429,236,l),
(450,0,l),
(756,0,l),
(996,498,l),
(686,509,l),
(453,28,l),
(431,263,l)
);
}
);
width = 600;
},
{
layerId = m002;
shapes = (
{
closed = 1;
nodes = (
(452,498,l),
(430,509,l),
(325,292,l),
(217,509,l),
(199,497,l),
(311,265,l),
(198,28,l),
(-36,508,l),
(-54,498,l),
(186,0,l),
(212,0,l),
(326,236,l),
(440,0,l),
(466,0,l),
(706,498,l),
(686,509,l),
(453,28,l),
(340,263,l)
);
}
);
width = 600;
}
);
unicode = 87;
},
{
glyphname = X;
lastChange = "2024-03-08 11:52:58 +0000";
layers = (
{
layerId = m01;
shapes = (
{
closed = 1;
nodes = (
(249,494,l),
(285,446,l),
(105,188,l),
(322,-112,l),
(498,140,l),
(599,-4,l),
(618,11,l),
(513,160,l),
(667,380,l),
(449,681,l),
(300,467,l),
(268,508,l)
);
}
);
width = 600;
},
{
layerId = m002;
shapes = (
{
closed = 1;
nodes = (
(249,494,l),
(404,273,l),
(224,15,l),
(243,0,l),
(419,252,l),
(599,-4,l),
(618,11,l),
(434,272,l),
(588,492,l),
(568,508,l),
(419,294,l),
(268,508,l)
);
}
);
width = 600;
}
);
unicode = 88;
},
{
glyphname = Y;
lastChange = "2024-03-08 11:53:28 +0000";
layers = (
{
layerId = m01;
shapes = (
{
closed = 1;
nodes = (
(280,32,l),
(176,-190,l),
(608,-200,l),
(894,494,l),
(464,509,l),
(283,67,l),
(244,510,l),
(239,496,l)
);
}
);
width = 600;
},
{
layerId = m002;
shapes = (
{
closed = 1;
nodes = (
(269,32,l),
(176,-190,l),
(201,-200,l),
(487,494,l),
(464,509,l),
(283,67,l),
(100,510,l),
(77,496,l)
);
}
);
width = 600;
}
);
unicode = 89;
},
{
glyphname = Z;
lastChange = "2024-03-08 11:54:08 +0000";
layers = (
{
layerId = m01;
shapes = (
{
closed = 1;
nodes = (
(464,508,l),
(464,482,l),
(501,482,l),
(139,25,l),
(138,25,l),
(138,0,l),
(536,0,l),
(536,26,l),
(505,26,l),
(871,486,l),
(871,508,l)
);
}
);
width = 600;
},
{
layerId = m002;
shapes = (
{
closed = 1;
nodes = (
(138,508,l),
(138,482,l),
(501,482,l),
(139,25,l),
(138,25,l),
(138,0,l),
(536,0,l),
(536,26,l),
(170,26,l),
(536,486,l),
(536,508,l)
);
}
);
width = 600;
}
);
unicode = 90;
},
{
glyphname = zero;
lastChange = "2024-03-08 11:54:54 +0000";
layers = (
{
layerId = m01;
shapes = (
{
closed = 1;
nodes = (
(1123,641,l),
(1046,737,l),
(1043,741,l),
(943,801,l),
(935,804,l),
(696,803,l),
(695,801,l),
(683,740,l),
(682,737,l),
(671,631,l),
(664,481,l),
(664,332,l),
(671,179,l),
(671,174,l),
(682,63,l),
(683,59,l),
(695,1,l),
(696,-1,l),
(936,-1,l),
(944,1,l),
(1042,60,l),
(1047,63,l),
(1142,175,l),
(1145,180,l),
(1199,333,l),
(1200,338,l),
(1200,477,l),
(1199,484,l),
(1158,570,l),
(1147,594,l)
);
},
{
closed = 1;
nodes = (
(748,342,l),
(742,190,l),
(731,80,l),
(720,26,l),
(696,26,l),
(684,82,l),
(674,190,l),
(667,340,l),
(667,476,l),
(674,616,l),
(684,721,l),
(697,779,l),
(697,779,l),
(719,779,l),
(719,779,l),
(731,722,l),
(738,643,l),
(743,579,l),
(744,554,l),
(748,477,l)
);
}
);
width = 600;
},
{
layerId = m002;
shapes = (
{
closed = 1;
nodes = (
(697,641,l),
(620,737,l),
(617,741,l),
(517,801,l),
(509,804,l),
(304,803,l),
(295,801,l),
(189,740,l),
(184,737,l),
(91,631,l),
(30,481,l),
(30,332,l),
(88,179,l),
(90,174,l),
(183,63,l),
(189,59,l),
(297,1,l),
(304,-1,l),
(510,-1,l),
(518,1,l),
(616,60,l),
(621,63,l),
(716,175,l),
(719,180,l),
(773,333,l),
(774,338,l),
(774,477,l),
(773,484,l),
(732,570,l),
(721,594,l)
);
},
{
closed = 1;
nodes = (
(748,342,l),
(694,190,l),
(600,80,l),
(507,26,l),
(306,26,l),
(203,82,l),
(111,190,l),
(54,340,l),
(54,476,l),
(110,616,l),
(203,721,l),
(309,779,l),
(310,779,l),
(502,779,l),
(503,779,l),
(600,722,l),
(664,643,l),
(701,579,l),
(712,554,l),
(748,477,l)
);
}
);
width = 600;
}
);
unicode = 48;
},
{
glyphname = one;
lastChange = "2024-03-08 11:55:28 +0000";
layers = (
{
layerId = m01;
shapes = (
{
closed = 1;
nodes = (
(339,0,l),
(743,0,l),
(743,799,l),
(339,799,l),
(339,798,l),
(283,388,l),
(287,375,l),
(339,753,l)
);
}
);
width = 600;
},
{
layerId = m002;
shapes = (
{
closed = 1;
nodes = (
(339,0,l),
(364,0,l),
(364,799,l),
(339,799,l),
(339,798,l),
(70,388,l),
(91,375,l),
(339,753,l)
);
}
);
width = 600;
}
);
unicode = 49;
},
{
glyphname = two;
lastChange = "2024-03-08 11:56:59 +0000";
layers = (
{
layerId = m01;
shapes = (
{
closed = 1;
nodes = (
(425,289,l),
(438,292,l),
(591,330,l),
(602,333,l),
(780,399,l),
(788,404,l),
(892,494,l),
(895,498,l),
(895,585,l),
(892,589,l),
(788,684,l),
(780,688,l),
(602,758,l),
(591,762,l),
(438,799,l),
(425,802,l),
(386,802,l),
(383,799,l),
(362,762,l),
(360,758,l),
(342,688,l),
(342,685,l),
(329,584,l),
(329,508,l),
(339,508,l),
(339,582,l),
(351,679,l),
(367,743,l),
(386,778,l),
(424,778,l),
(442,743,l),
(460,675,l),
(460,674,l),
(485,585,l),
(485,497,l),
(460,414,l),
(460,413,l),
(442,349,l),
(424,313,l),
(403,313,l),
(402,313,l),
(402,289,l)
);
},
{
closed = 1;
nodes = (
(417,509,l),
(425,496,l),
(263,25,l),
(256,25,l)
);
},
{
closed = 1;
nodes = (
(256,25,l),
(256,0,l),
(369,0,l),
(369,25,l),
(263,25,l),
(261,12,l)
);
}
);
width = 600;
},
{
layerId = m002;
shapes = (
{
closed = 1;
nodes = (
(368,289,l),
(377,292,l),
(428,330,l),
(431,333,l),
(479,399,l),
(481,404,l),
(509,494,l),
(510,498,l),
(510,585,l),
(509,589,l),
(481,684,l),
(479,688,l),
(431,758,l),
(428,762,l),
(377,799,l),
(368,802,l),
(263,802,l),
(255,799,l),
(200,762,l),
(196,758,l),
(148,688,l),
(146,685,l),
(114,584,l),
(114,508,l),
(140,508,l),
(140,582,l),
(170,679,l),
(214,743,l),
(265,778,l),
(364,778,l),
(412,743,l),
(459,675,l),
(459,674,l),
(485,585,l),
(485,497,l),
(460,414,l),
(459,413,l),
(412,349,l),
(365,313,l),
(310,313,l),
(305,313,l),
(305,289,l)
);
},
{
closed = 1;
nodes = (
(347,509,l),
(368,496,l),
(79,25,l),
(50,25,l)
);
},
{
closed = 1;
nodes = (
(50,25,l),
(50,0,l),
(535,0,l),
(535,25,l),
(79,25,l),
(71,12,l)
);
}
);
width = 600;
}
);
unicode = 50;
},
{
glyphname = three;
lastChange = "2024-03-08 11:58:20 +0000";
layers = (
{
layerId = m01;
shapes = (
{
closed = 1;
nodes = (
(441,420,l),
(449,364,l),
(449,363,l),
(454,286,l),
(454,208,l),
(449,133,l),
(449,132,l),
(441,64,l),
(430,24,l),
(409,24,l),
(398,59,l),
(390,118,l),
(386,187,l),
(386,290,l),
(381,290,l),
(381,185,l),
(386,112,l),
(386,109,l),
(395,44,l),
(396,40,l),
(407,3,l),
(409,0,l),
(430,0,l),
(436,3,l),
(575,46,l),
(585,50,l),
(751,120,l),
(756,124,l),
(853,206,l),
(855,210,l),
(855,288,l),
(853,292,l),
(756,377,l),
(751,382,l),
(597,440,l),
(585,443,l),
(443,474,l),
(616,518,l),
(705,586,l),
(705,677,l),
(583,745,l),
(575,751,l),
(437,806,l),
(431,809,l),
(410,801,l),
(408,798,l),
(397,748,l),
(397,744,l),
(391,681,l),
(391,627,l),
(395,627,l),
(395,681,l),
(401,737,l),
(410,777,l),
(430,777,l),
(440,728,l),
(446,667,l),
(446,589,l),
(442,528,l),
(429,481,l),
(414,481,l),
(414,455,l),
(430,455,l)
);
}
);
width = 600;
},
{
layerId = m002;
shapes = (
{
closed = 1;
nodes = (
(384,420,l),
(428,364,l),
(429,363,l),
(454,286,l),
(454,208,l),
(428,133,l),
(428,132,l),
(381,64,l),
(319,24,l),
(205,24,l),
(147,59,l),
(102,118,l),
(76,187,l),
(76,290,l),
(50,290,l),
(50,185,l),
(78,112,l),
(80,109,l),
(129,44,l),
(133,40,l),
(195,3,l),
(203,0,l),
(323,0,l),
(332,3,l),
(397,45,l),
(400,49,l),
(448,119,l),
(450,123,l),
(478,204,l),
(479,208,l),
(479,285,l),
(478,289,l),
(450,373,l),
(448,378,l),
(403,436,l),
(400,439,l),
(344,470,l),
(409,513,l),
(435,580,l),
(435,670,l),
(399,738,l),
(397,743,l),
(334,798,l),
(325,801,l),
(210,801,l),
(201,798,l),
(138,748,l),
(136,744,l),
(104,681,l),
(104,627,l),
(128,627,l),
(128,681,l),
(160,737,l),
(213,777,l),
(322,777,l),
(377,728,l),
(410,667,l),
(410,589,l),
(387,528,l),
(318,481,l),
(232,481,l),
(232,455,l),
(320,455,l)
);
}
);
width = 600;
}
);
unicode = 51;
},
{
glyphname = four;
lastChange = "2024-03-08 18:58:47 +0000";
layers = (
{
layerId = m01;
shapes = (
{
closed = 1;
nodes = (
(585,294,l),
(600,319,l),
(600,319,l),
(709,500,l),
(402,509,l),
(285,315,l),
(80,315,l),
(363,788,l),
(342,801,l),
(50,315,l),
(50,290,l),
(270,290,l),
(104,13,l),
(411,4,l),
(585,294,l)
);
}
);
width = 600;
},
{
layerId = m002;
shapes = (
{
closed = 1;
nodes = (
(525,290,l),
(525,315,l),
(314,315,l),
(423,496,l),
(402,509,l),
(285,315,l),
(80,315,l),
(363,788,l),
(342,801,l),
(50,315,l),
(50,290,l),
(270,290,l),
(104,13,l),
(125,0,l),
(299,290,l)
);
}
);
width = 600;
}
);
unicode = 52;
},
{
glyphname = five;
lastChange = "2024-03-08 11:59:39 +0000";
layers = (
{
layerId = m01;
shapes = (
{
closed = 1;
nodes = (
(326,118,l),
(340,45,l),
(341,41,l),
(357,4,l),
(359,1,l),
(599,1,l),
(608,4,l),
(659,41,l),
(710,115,l),
(740,214,l),
(741,218,l),
(741,305,l),
(712,399,l),
(710,404,l),
(662,470,l),
(604,514,l),
(353,514,l),
(353,775,l),
(450,775,l),
(450,800,l),
(353,800,l),
(349,800,l),
(346,800,l),
(346,490,l),
(353,490,l),
(387,490,l),
(401,454,l),
(414,389,l),
(421,306,l),
(421,218,l),
(414,129,l),
(414,128,l),
(401,60,l),
(387,25,l),
(360,25,l),
(345,60,l),
(333,124,l),
(325,198,l),
(325,290,l),
(317,290,l),
(317,196,l)
);
}
);
width = 600;
},
{
layerId = m002;
shapes = (
{
closed = 1;
nodes = (
(82,118,l),
(132,45,l),
(136,41,l),
(191,4,l),
(199,1,l),
(304,1,l),
(313,4,l),
(364,41,l),
(415,115,l),
(445,214,l),
(446,218,l),
(446,305,l),
(417,399,l),
(415,404,l),
(367,470,l),
(309,514,l),
(178,514,l),
(178,775,l),
(450,775,l),
(450,800,l),
(178,800,l),
(163,800,l),
(153,800,l),
(153,490,l),
(178,490,l),
(301,490,l),
(348,454,l),
(396,389,l),
(421,306,l),
(421,218,l),
(395,129,l),
(395,128,l),
(348,60,l),
(300,25,l),
(201,25,l),
(150,60,l),
(106,124,l),
(76,198,l),
(76,290,l),
(50,290,l),
(50,196,l)
);
}
);
width = 600;
}
);
unicode = 53;
},
{
glyphname = six;
lastChange = "2024-03-08 12:00:42 +0000";
layers = (
{
layerId = m01;
shapes = (
{
closed = 1;
nodes = (
(484,720,l),
(484,721,l),
(469,776,l),
(446,776,l),
(431,723,l),
(423,642,l),
(423,528,l),
(458,677,l),
(462,660,l),
(427,513,l),
(632,513,l),
(641,510,l),
(696,472,l),
(699,469,l),
(747,403,l),
(749,399,l),
(781,302,l),
(781,218,l),
(749,117,l),
(747,114,l),
(699,44,l),
(695,40,l),
(640,3,l),
(632,0,l),
(423,0,l),
(421,3,l),
(409,40,l),
(408,44,l),
(397,114,l),
(397,118,l),
(390,213,l),
(390,217,l),
(390,304,l),
(390,308,l),
(397,398,l),
(397,403,l),
(408,469,l),
(409,472,l),
(417,503,l),
(417,646,l),
(425,734,l),
(426,738,l),
(443,800,l),
(611,800,l),
(691,730,l),
(730,648,l),
(731,644,l),
(731,566,l),
(493,566,l),
(493,645,l)
);
},
{
closed = 1;
nodes = (
(447,24,l),
(459,59,l),
(469,123,l),
(476,220,l),
(476,301,l),
(469,392,l),
(458,454,l),
(447,489,l),
(424,489,l),
(413,453,l),
(402,389,l),
(396,305,l),
(396,217,l),
(402,128,l),
(402,127,l),
(413,59,l),
(424,24,l)
);
}
);
width = 600;
},
{
layerId = m002;
shapes = (
{
closed = 1;
nodes = (
(454,720,l),
(453,721,l),
(388,776,l),
(289,776,l),
(225,723,l),
(190,642,l),
(190,528,l),
(343,677,l),
(359,660,l),
(209,513,l),
(297,513,l),
(306,510,l),
(361,472,l),
(364,469,l),
(412,403,l),
(414,399,l),
(446,302,l),
(446,218,l),
(414,117,l),
(412,114,l),
(364,44,l),
(360,40,l),
(305,3,l),
(297,0,l),
(192,0,l),
(183,3,l),
(132,40,l),
(129,44,l),
(81,114,l),
(79,118,l),
(51,213,l),
(50,217,l),
(50,304,l),
(51,308,l),
(79,398,l),
(81,403,l),
(129,469,l),
(132,472,l),
(164,503,l),
(164,646,l),
(201,734,l),
(203,738,l),
(280,800,l),
(398,800,l),
(478,730,l),
(517,648,l),
(518,644,l),
(518,566,l),
(493,566,l),
(493,645,l)
);
},
{
closed = 1;
nodes = (
(295,24,l),
(346,59,l),
(390,123,l),
(420,220,l),
(420,301,l),
(390,392,l),
(344,454,l),
(294,489,l),
(195,489,l),
(148,453,l),
(100,389,l),
(75,305,l),
(75,217,l),
(101,128,l),
(101,127,l),
(148,59,l),
(196,24,l)
);
}
);
width = 600;
}
);
unicode = 54;
},
{
glyphname = seven;
lastChange = "2024-03-08 12:01:29 +0000";
layers = (
{
layerId = m01;
shapes = (
{
closed = 1;
nodes = (
(518,480,l),
(518,505,l),
(783,505,l),
(946,775,l),
(946,800,l),
(946,800,l),
(248,800,l),
(248,775,l),
(510,775,l),
(343,505,l),
(279,505,l),
(279,480,l),
(328,480,l),
(45,13,l),
(478,0,l),
(768,480,l)
);
}
);
width = 600;
},
{
layerId = m002;
shapes = (
{
closed = 1;
nodes = (
(518,480,l),
(518,505,l),
(373,505,l),
(536,775,l),
(536,784,l),
(536,800,l),
(40,799,l),
(40,774,l),
(506,775,l),
(343,505,l),
(172,505,l),
(172,480,l),
(328,480,l),
(45,13,l),
(68,0,l),
(358,480,l)
);
}
);
width = 600;
}
);
unicode = 55;
},
{
glyphname = eight;
lastChange = "2024-03-08 12:02:15 +0000";
layers = (
{
layerId = m01;
shapes = (
{
closed = 1;
nodes = (
(564,738,l),
(677,670,l),
(677,593,l),
(595,513,l),
(445,470,l),
(567,439,l),
(576,436,l),
(719,378,l),
(725,373,l),
(813,289,l),
(816,285,l),
(816,208,l),
(813,204,l),
(725,123,l),
(719,119,l),
(567,49,l),
(557,45,l),
(442,3,l),
(436,0,l),
(408,0,l),
(406,3,l),
(394,40,l),
(393,44,l),
(383,122,l),
(382,125,l),
(377,211,l),
(377,266,l),
(377,292,l),
(383,373,l),
(383,378,l),
(393,436,l),
(393,439,l),
(406,474,l),
(393,516,l),
(388,596,l),
(388,627,l),
(388,662,l),
(388,677,l),
(394,744,l),
(395,748,l),
(407,798,l),
(409,801,l),
(433,801,l),
(438,798,l),
(557,743,l)
);
},
{
closed = 1;
nodes = (
(382,213,l),
(387,131,l),
(396,59,l),
(408,24,l),
(433,24,l),
(444,64,l),
(454,132,l),
(454,133,l),
(459,208,l),
(459,286,l),
(454,363,l),
(454,364,l),
(445,420,l),
(432,456,l),
(430,456,l),
(411,456,l),
(410,456,l),
(396,420,l),
(388,364,l),
(387,363,l),
(382,289,l),
(382,266,l)
);
},
{
closed = 1;
nodes = (
(450,602,l),
(450,667,l),
(443,728,l),
(432,777,l),
(410,777,l),
(399,737,l),
(393,672,l),
(393,662,l),
(393,653,l),
(393,605,l),
(397,531,l),
(412,480,l),
(430,480,l),
(431,480,l),
(445,528,l)
);
}
);
width = 600;
},
{
layerId = m002;
shapes = (
{
closed = 1;
nodes = (
(404,738,l),
(440,670,l),
(440,593,l),
(414,513,l),
(349,470,l),
(405,439,l),
(408,436,l),
(453,378,l),
(455,373,l),
(483,289,l),
(484,285,l),
(484,208,l),
(483,204,l),
(455,123,l),
(453,119,l),
(405,49,l),
(402,45,l),
(344,3,l),
(335,0,l),
(208,0,l),
(200,3,l),
(138,40,l),
(134,44,l),
(85,122,l),
(83,125,l),
(55,211,l),
(55,266,l),
(55,292,l),
(86,373,l),
(88,378,l),
(133,436,l),
(136,439,l),
(198,474,l),
(134,516,l),
(108,596,l),
(108,627,l),
(108,662,l),
(108,677,l),
(141,744,l),
(143,748,l),
(206,798,l),
(215,801,l),
(330,801,l),
(339,798,l),
(402,743,l)
);
},
{
closed = 1;
nodes = (
(81,213,l),
(107,131,l),
(152,59,l),
(210,24,l),
(331,24,l),
(386,64,l),
(433,132,l),
(433,133,l),
(459,208,l),
(459,286,l),
(434,363,l),
(433,364,l),
(389,420,l),
(325,456,l),
(317,456,l),
(224,456,l),
(216,456,l),
(152,420,l),
(108,364,l),
(107,363,l),
(81,289,l),
(81,266,l)
);
},
{
closed = 1;
nodes = (
(415,602,l),
(415,667,l),
(382,728,l),
(327,777,l),
(218,777,l),
(165,737,l),
(133,672,l),
(133,662,l),
(133,653,l),
(133,605,l),
(156,531,l),
(230,480,l),
(317,480,l),
(323,480,l),
(392,528,l)
);
}
);
width = 600;
}
);
unicode = 56;
},
{
glyphname = nine;
lastChange = "2024-03-08 18:44:49 +0000";
layers = (
{
layerId = m01;
shapes = (
{
closed = 1;
nodes = (
(402,810,l),
(399,807,l),
(375,754,l),
(375,750,l),
(360,663,l),
(360,659,l),
(360,557,l),
(360,553,l),
(373,471,l),
(398,401,l),
(436,401,l),
(443,418,l),
(442,161,o),
(442,161,q),
(430,80,l),
(409,27,l),
(378,27,l),
(357,82,l),
(357,83,l),
(344,158,l),
(344,243,l),
(336,243,l),
(336,159,l),
(336,155,l),
(349,73,l),
(375,3,l),
(586,3,l),
(663,65,l),
(665,69,l),
(696,137,l),
(704,154,l),
(704,155,o),
(704,155,q),
(705,157,l),
(704,157,l),
(696,438,l),
(696,492,l),
(696,582,l),
(696,582,l),
(474,664,l),
(460,754,l),
(438,807,l),
(435,810,l)
);
},
{
closed = 1;
nodes = (
(433,425,l),
(401,425,l),
(381,480,l),
(380,481,l),
(368,556,l),
(368,659,l),
(382,740,l),
(403,786,l),
(435,786,l),
(453,743,l),
(466,662,l),
(443,582,l),
(454,478,l),
(696,450,l),
(696,582,l),
(443,582,l),
(443,450,l)
);
}
);
width = 600;
},
{
layerId = m002;
shapes = (
{
closed = 1;
nodes = (
(248,810,l),
(239,807,l),
(166,754,l),
(164,750,l),
(118,663,l),
(117,659,l),
(117,557,l),
(118,553,l),
(157,471,l),
(237,401,l),
(355,401,l),
(376,418,l),
(374,161,o),
(374,161,q),
(336,80,l),
(272,27,l),
(173,27,l),
(108,82,l),
(107,83,l),
(68,158,l),
(68,243,l),
(43,243,l),
(43,159,l),
(44,155,l),
(83,73,l),
(163,3,l),
(281,3,l),
(358,65,l),
(360,69,l),
(399,154,l),
(399,154,l),
(399,155,o),
(399,155,q),
(400,157,l),
(399,157,l),
(401,438,l),
(432,463,l),
(434,467,l),
(474,555,l),
(474,664,l),
(431,754,l),
(361,807,l),
(353,810,l)
);
},
{
closed = 1;
nodes = (
(346,425,l),
(247,425,l),
(182,480,l),
(181,481,l),
(142,556,l),
(142,659,l),
(186,740,l),
(252,786,l),
(351,786,l),
(407,743,l),
(448,662,l),
(448,559,l),
(410,478,l),
(401,471,l),
(402,582,l),
(377,582,l),
(376,450,l)
);
}
);
width = 600;
}
);
unicode = 57;
},
